<svg xmlns="http://www.w3.org/2000/svg" preserveAspectRatio="xMidYMid" width="28" height="28" viewBox="0 0 28 28"><defs><style>.cls-1{fill:#353d42;fill-rule:evenodd}</style></defs><path d="M14 28C6.268 28 0 21.732 0 14S6.268 0 14 0s14 6.268 14 14-6.268 14-14 14zm1.351-22c-1.341 0-2.012 1.076-2.012 1.859-.026.93.537 1.493 1.502 1.493 1.153 0 2.038-.905 2.038-1.884 0-.783-.509-1.468-1.528-1.468zm1.193 11.745c-.777.611-1.569.906-1.81.906-.187 0-.268-.245-.08-.954l1.057-4.014c.402-1.468.268-2.422-.537-2.422-.965 0-3.217.961-5.174 2.6l.402.661c.617-.416 1.662-.839 1.903-.839.188 0 .161.245 0 .856l-.923 3.819c-.563 2.153.027 2.642.831 2.642.805 0 2.883-.735 4.787-2.644l-.456-.611z" class="cls-1"/></svg>