<svg xmlns="http://www.w3.org/2000/svg" preserveAspectRatio="xMidYMid" width="16" height="16" viewBox="0 0 16 16"><defs><style>.cls-1{fill:#353d42;opacity:.5;fill-rule:evenodd}</style></defs><path d="M15.916 14.084c.04.135.084.268.084.416a1.5 1.5 0 0 1-1.5 1.5c-.148 0-.281-.044-.416-.084L14 16l-.188-.188a1.48 1.48 0 0 1-.623-.623l-4.08-4.08A5.95 5.95 0 0 1 6 12a6 6 0 1 1 6-6 5.95 5.95 0 0 1-.891 3.109l4.078 4.078c.269.142.484.357.626.626L16 14l-.084.084zM6 2a4 4 0 1 0 0 8 4 4 0 0 0 0-8z" class="cls-1"/></svg>