<svg xmlns="http://www.w3.org/2000/svg" preserveAspectRatio="xMidYMid" width="58" height="58" viewBox="0 0 58 58"><defs><style>.cls-1{fill:#9e0059}.cls-2{fill:#fff;fill-rule:evenodd}</style></defs><rect width="58" height="58" rx="2" ry="2" class="cls-1"/><path d="M34.385999999999996 18c-3.173 0-5.745 2.487-5.745 5.554 0 .436.051.86.148 1.266-4.774-.232-9.007-2.443-11.84-5.803a5.391 5.391 0 0 0-.778 2.792c0 1.927 1.014 3.627 2.556 4.623a5.884 5.884 0 0 1-2.602-.694l-.001.069c0 2.691 1.981 4.936 4.608 5.446a5.93 5.93 0 0 1-2.594.095c.731 2.206 2.853 3.813 5.367 3.858a11.786 11.786 0 0 1-7.135 2.377c-.464 0-.921-.027-1.37-.078a16.666 16.666 0 0 0 8.806 2.496c10.566 0 16.344-8.464 16.344-15.803 0-.241-.005-.48-.016-.718A11.48 11.48 0 0 0 43 20.605c-1.03.441-2.137.74-3.299.874a5.605 5.605 0 0 0 2.526-3.073 11.735 11.735 0 0 1-3.648 1.348A5.833 5.833 0 0 0 34.386 18" class="cls-2"/></svg>