<svg xmlns="http://www.w3.org/2000/svg" preserveAspectRatio="xMidYMid" width="16" height="16" viewBox="0 0 16 16"><defs><style>.cls-1{fill:#fff;fill-rule:evenodd}</style></defs><path d="M15.916 14.084c.04.135.084.269.084.416a1.5 1.5 0 0 1-1.5 1.5c-.148 0-.281-.044-.416-.084L14 16l-.188-.188a1.485 1.485 0 0 1-.624-.624l-4.079-4.079A5.95 5.95 0 0 1 6 12a6 6 0 1 1 6-6 5.95 5.95 0 0 1-.891 3.109l4.078 4.079c.269.141.484.356.625.625L16 14l-.084.084zM6 2a4 4 0 1 0 0 8 4 4 0 0 0 0-8z" class="cls-1"/></svg>