<svg xmlns="http://www.w3.org/2000/svg" preserveAspectRatio="xMidYMid" width="28" height="28" viewBox="0 0 28 28"><defs><style>.cls-1{fill:#000;fill-rule:evenodd}</style></defs><path d="M13.994 27.984c-7.732 0-14-6.268-14-14 0-7.731 6.268-14 14-14s14 6.269 14 14c0 7.732-6.268 14-14 14zm-1.382-6.96h2.784v-2.867h-2.784v2.867zm1.381-15.027c-2.093 0-3.955.858-4.751 2.888-.251.628-.334 1.277-.397 1.947l2.532.293c0-1.507.858-2.742 2.47-2.742 1.109 0 2.198.816 2.198 1.988 0 1.8-1.842 1.988-2.7 3.223-.524.733-.586 2.219-.586 3.098v.523h2.448v-.586c0-1.381.231-1.695 1.382-2.491 1.507-1.046 2.344-2.072 2.344-3.767 0-2.825-2.344-4.374-4.94-4.374z" class="cls-1"/></svg>