<svg xmlns="http://www.w3.org/2000/svg" preserveAspectRatio="xMidYMid" width="58" height="58" viewBox="0 0 58 58"><defs><style>.cls-1{fill:#353d42}.cls-2{fill:#fff200;fill-rule:evenodd}.cls-3{fill:#fff}</style></defs><rect width="58" height="58" rx="2" ry="2" class="cls-1"/><path d="M42.709 18.578v2.698h-1.504v-2.698l-2.49-4.499h1.772l1.494 3.135 1.431-3.135h1.704l-2.407 4.499zm-10.801 6.501h1.503v5.903h3.594v1.294h-5.097v-7.197zm1.22-3.803h-1.513v-5.923h-2.164v-1.274h5.831v1.274h-2.154v5.923zm-6.093 9.521h-2.65l-.488 1.479h-1.573l2.569-7.197h1.701l2.547 7.197H27.51l-.475-1.479zm-1.307-4.072l-.934 2.832h1.843l-.909-2.832zm-1.721-12.646h1.494v7.197h-1.494v-7.197zm-6.097 1.616c-.268-.312-.665-.469-1.191-.469-.536 0-.958.221-1.268.662-.309.441-.464 1.065-.464 1.873 0 .807.163 1.412.49 1.814.326.402.741.603 1.244.603.516 0 .909-.173 1.18-.518.15-.185.274-.464.372-.835h1.495c-.129.785-.459 1.423-.988 1.914-.53.492-1.209.737-2.036.737-1.024 0-1.83-.332-2.416-.996-.586-.667-.879-1.582-.879-2.744 0-1.256.334-2.225 1-2.905.58-.592 1.317-.889 2.213-.889 1.198 0 2.074.397 2.628 1.192.305.446.47.893.492 1.342h-1.504c-.095-.345-.218-.605-.368-.781zm-2.664 12.128h2.798v-2.744h1.494v7.197h-1.494v-3.213h-2.798v3.213h-1.494v-7.197h1.494v2.744zm26.125 3.159h3.594v1.294h-5.098v-7.197h1.504v5.903z" class="cls-2"/><path d="M41.366 39.414h2.998v3.862h-.996l-.151-.898c-.29.34-.55.58-.781.719-.398.243-.886.365-1.465.365-.954 0-1.735-.33-2.344-.991-.635-.663-.952-1.571-.952-2.723 0-1.164.32-2.098.962-2.801.641-.702 1.489-1.054 2.544-1.054.914 0 1.649.232 2.204.696.555.464.873 1.043.955 1.736h-1.48c-.114-.491-.392-.835-.835-1.03a2.038 2.038 0 0 0-.825-.161c-.579 0-1.055.218-1.428.655-.373.437-.559 1.094-.559 1.971 0 .884.202 1.51.605 1.877.404.367.863.55 1.377.55.505 0 .918-.144 1.241-.434.322-.289.52-.669.595-1.138h-1.665v-1.201zm-8.99 4.062c-1.028 0-1.815-.279-2.358-.839-.729-.687-1.094-1.677-1.094-2.969 0-1.318.365-2.308 1.094-2.969.543-.56 1.33-.84 2.358-.84 1.029 0 1.815.28 2.359.84.726.661 1.089 1.651 1.089 2.969 0 1.292-.363 2.282-1.089 2.969-.544.56-1.33.839-2.359.839zm1.419-5.681c-.35-.441-.823-.661-1.419-.661-.595 0-1.071.219-1.425.659-.355.439-.533 1.064-.533 1.875 0 .81.178 1.435.533 1.875.354.439.83.659 1.425.659.596 0 1.069-.22 1.419-.659.35-.44.525-1.065.525-1.875 0-.807-.175-1.432-.525-1.873zm-11.761-1.716h1.504v5.903h3.594v1.294h-5.098v-7.197zm-2.345 5.024c0 .427-.106.809-.32 1.148a1.978 1.978 0 0 1-1.323.928 4.989 4.989 0 0 1-1.017.097h-3.243v-7.197h3.478c.878.013 1.5.269 1.866.767.22.306.33.672.33 1.098 0 .44-.111.793-.333 1.06-.125.15-.308.286-.549.41.367.134.644.345.831.635.187.29.28.641.28 1.054zm-2.051-3.662c-.222-.075-.506-.112-.851-.112h-1.565v1.587h1.749c.312 0 .566-.059.761-.178.195-.119.292-.33.292-.633 0-.335-.128-.556-.386-.664zm.074 2.788c-.17-.078-.41-.118-.719-.122h-1.771v1.919h1.747c.312 0 .555-.042.729-.127.315-.156.473-.455.473-.898 0-.374-.153-.632-.459-.772z" class="cls-3"/></svg>