<svg xmlns="http://www.w3.org/2000/svg" preserveAspectRatio="xMidYMid" width="58" height="58" viewBox="0 0 58 58"><defs><style>.cls-1{fill:#39678b}.cls-2{fill:#fff;fill-rule:evenodd}</style></defs><rect width="58" height="58" rx="2" ry="2" class="cls-1"/><path d="M40 27.001h-3c.428.439.615 1.252.615 1.997A8.615 8.615 0 0 1 29 37.614c-4.758 0-8.479-3.858-8.616-8.616-.031-1.088.345-1.745.616-1.997h-3v12c0 .593.404 1 1 1h20c.596 0 1-.407 1-1v-12zm0-8c0-.595-.404-1-1-1h-4c-.595 0-1 .405-1 1V23c0 .595.405 1 1 1h4c.596 0 1-.405 1-1v-3.999zm-11 3.987a6.012 6.012 0 1 0 6.011 6.01C35.011 25.678 31.974 23 29 23m11 20.001H18c-1.784 0-3-1.215-3-3v-22c0-1.785 1.216-3 3-3h22c1.784 0 3 1.215 3 3v22c0 1.785-1.216 3-3 3" class="cls-2"/></svg>